<?xml version="1.0"?>
<svg xmlns="http://www.w3.org/2000/svg" xmlns:xlink="http://www.w3.org/1999/xlink" xmlns:svgjs="http://svgjs.com/svgjs" version="1.1" width="512" height="512" x="0" y="0" viewBox="0 0 480.05235 480" style="enable-background:new 0 0 512 512" xml:space="preserve" class=""><g><g xmlns="http://www.w3.org/2000/svg" fill="#9bc9ff"><path d="m304.027344 240.027344c0 35.34375-28.65625 64-64 64-35.347656 0-64-28.65625-64-64 0-35.347656 28.652344-64 64-64 35.34375 0 64 28.652344 64 64zm0 0" fill="#fffdfd" data-original="#9bc9ff" style="" class=""/><path d="m472.027344 408.027344c0 35.34375-28.65625 64-64 64-35.347656 0-64-28.65625-64-64 0-35.347656 28.652344-64 64-64 35.34375 0 64 28.652344 64 64zm0 0" fill="#fffdfd" data-original="#9bc9ff" style="" class=""/><path d="m136.027344 72.027344c0 35.34375-28.65625 64-64 64-35.347656 0-64-28.65625-64-64 0-35.347656 28.652344-64 64-64 35.34375 0 64 28.652344 64 64zm0 0" fill="#fffdfd" data-original="#9bc9ff" style="" class=""/></g><path xmlns="http://www.w3.org/2000/svg" d="m472.027344 232.027344h-160.472656c-4.183594-36.339844-34.949219-63.769532-71.527344-63.769532-36.582032 0-67.347656 27.429688-71.527344 63.769532h-160.472656c-4.417969 0-8.0000002 3.582031-8.0000002 8 0 4.417968 3.5820312 8 8.0000002 8h160.472656c4.179688 36.339844 34.945312 63.769531 71.527344 63.769531 36.578125 0 67.34375-27.429687 71.527344-63.769531h160.472656c4.417968 0 8-3.582032 8-8 0-4.417969-3.582032-8-8-8zm-232 64c-30.929688 0-56-25.074219-56-56 0-30.929688 25.070312-56 56-56 30.925781 0 56 25.070312 56 56-.035156 30.914062-25.085938 55.964844-56 56zm0 0" fill="#ffbf00" data-original="#1e81ce" style="" class=""/><path xmlns="http://www.w3.org/2000/svg" d="m408.027344 336.027344c-36.644532.050781-67.417969 27.585937-71.527344 64h-328.472656c-4.417969 0-8.0000002 3.582031-8.0000002 8 0 4.417968 3.5820312 8 8.0000002 8h328.472656c4.300781 38.488281 38.277344 66.675781 76.902344 63.800781 38.621094-2.878906 68.046875-35.789063 66.601562-74.492187-1.449218-38.699219-33.25-69.324219-71.976562-69.308594zm0 128c-30.929688 0-56-25.074219-56-56 0-30.929688 25.070312-56 56-56 30.925781 0 56 25.070312 56 56-.035156 30.914062-25.085938 55.964844-56 56zm0 0" fill="#ffbf00" data-original="#1e81ce" style="" class=""/><path xmlns="http://www.w3.org/2000/svg" d="m72.027344 144.027344c36.640625-.054688 67.414062-27.589844 71.527344-64h328.472656c4.417968 0 8-3.582032 8-8 0-4.417969-3.582032-8-8-8h-328.472656c-4.304688-38.488282-38.28125-66.679688-76.902344-63.800782-38.621094 2.875-68.046875 35.789063-66.6015628 74.488282 1.4453128 38.703125 33.2460938 69.324218 71.9765628 69.3125zm0-128c30.925781 0 56 25.070312 56 56 0 30.925781-25.074219 56-56 56-30.929688 0-56-25.074219-56-56 .035156-30.914063 25.085937-55.964844 56-56zm0 0" fill="#ffbf00" data-original="#1e81ce" style="" class=""/></g></svg>
