<svg 
enable-background="new 0 0 1858 2499.6" 
viewBox="0 0 1858 2499.6" 
height="60"
width="60" 
xmlns="http://www.w3.org/2000/svg">

<path
     d="m 2143.9712,2357.1021 c 0,59.1014 -48.5476,104.6148 -104.6147,104.6148 H -202.53947 c -59.10141,0 -104.61477,-48.5476 -104.61477,-104.6148 V 115.2063 c 0,-59.101413 48.54759,-104.614775 104.61477,-104.614775 H 2039.2245 c 59.1014,0 104.6148,48.547586 104.6148,104.614775 v 2241.8958 z"
     style="stroke:#ffbf00;stroke-opacity:1;stroke-width:90;stroke-miterlimit:4;stroke-dasharray:none;fill:none;fill-opacity:1" 
     />
  <path
     d="m 2143.9712,2357.1021 c 0,59.1014 -48.5476,104.6148 -104.6147,104.6148 H 531.61085 L 43.23269,1965.6872 346.6551,1469.6575 1247.6877,350.29271 2141.0689,1270.9819 Z"
    
     style="fill:#de8c00;fill-opacity:0.18957347" />
  <path
     d="M 1705.5918,1380.2139 H 1447.6827 L 1174.6025,916.10955 c 60.6845,-12.13689 106.1979,-66.75293 106.1979,-130.47164 V 435.25099 c 0,-74.27253 -59.1014,-133.50586 -133.5059,-133.50586 H 692.42473 c -74.27253,0 -133.50586,59.10141 -133.50586,133.50586 v 350.38692 c 0,65.16986 45.51336,118.33475 104.61477,130.47164 L 390.45347,1381.797 H 132.67634 c -74.272529,0 -133.50586107,59.1014 -133.50586107,133.5058 v 350.3869 c 0,74.2726 59.10140907,133.5059 133.50586107,133.5059 h 455.00169 c 74.27253,0 133.50587,-59.1014 133.50587,-133.5059 v -350.3869 c 0,-74.2725 -59.10141,-133.5058 -133.50587,-133.5058 H 543.74775 L 813.79369,920.72685 H 1024.6063 L 1296.1034,1381.797 H 1250.59 c -74.2725,0 -133.5058,59.1014 -133.5058,133.5058 v 350.3869 c 0,74.2726 59.1014,133.5059 133.5058,133.5059 h 455.0018 c 74.2725,0 133.5059,-59.1014 133.5059,-133.5059 v -350.3869 c 0,-74.4044 -59.1014,-135.0889 -133.5059,-135.0889 z"
      style="stroke:none;stroke-opacity:1;fill:#ffbf00;fill-opacity:1;stroke-width:39.05625;stroke-miterlimit:4;stroke-dasharray:none" />
</svg>


