<svg width="50" height="50" xmlns="http://www.w3.org/2000/svg">
 <g>
  <title>background</title>
  <rect fill="none" id="canvas_background" height="52" width="52" y="-1" x="-1"/>
 </g>

 <g>
  <title>Layer 1</title>
  <g stroke="null" id="svg_30">
   <path stroke="null" fill="#242646" id="svg_9" d="m48.835518,27.631247c1.715951,-13.433453 -7.770813,-25.714769 -21.179757,-27.43072s-25.739283,7.770813 -27.455234,21.179752s7.770813,25.714769 21.179752,27.455239c13.433453,1.715951 25.714769,-7.770813 27.455239,-21.204271z"/>
   <path stroke="null" id="svg_10" fill="#fff" d="m33.367433,15.742148l-10.344745,10.344745l-2.917116,-2.917121c10.173143,-10.173143 11.178201,-9.290653 13.261861,-7.427624z"/>
   <path stroke="null" id="svg_11" fill="#242646" d="m23.022694,26.332026c-0.073542,0 -0.122569,-0.024514 -0.171597,-0.073542l-2.941635,-2.917116c-0.09805,-0.098056 -0.09805,-0.245139 0,-0.343194c10.344745,-10.34474 11.42334,-9.364195 13.60505,-7.403105c0.049028,0.049028 0.073542,0.098056 0.073542,0.171592s-0.024514,0.122569 -0.073542,0.171597l-10.34474,10.320226c-0.024514,0.049028 -0.098056,0.073542 -0.147083,0.073542l0.000005,0zm-2.573932,-3.162255l2.573932,2.573927l9.977032,-9.977037c-1.814007,-1.617896 -3.039685,-2.108168 -12.550963,7.40311z"/>
   <path stroke="null" id="svg_12" fill="#fff" d="m25.988837,29.053036l-2.819066,-2.819066l10.34474,-10.34474c2.770038,2.794552 -1.372762,7.329568 -7.525674,13.163805z"/>
   <path stroke="null" id="svg_13" fill="#242646" d="m25.988837,29.298175c-0.073542,0 -0.122569,-0.024514 -0.171597,-0.073542l-2.819066,-2.819066c-0.049023,-0.049028 -0.049023,-0.098056 -0.049023,-0.171597s0.024509,-0.122564 0.073536,-0.171592l10.344745,-10.34474c0.09805,-0.098056 0.245134,-0.098056 0.343189,0c0.637351,0.588323 0.980545,1.42179 0.956031,2.279765c-0.049028,2.72101 -3.137741,6.177426 -8.481711,11.227229c-0.073536,0.049028 -0.147078,0.073542 -0.196106,0.073542zm-2.475876,-3.064204c1.568873,1.593387 2.230743,2.230743 2.475876,2.475876c4.118286,-3.922175 8.114002,-7.94241 8.138516,-10.712443c0.024514,-0.637356 -0.220625,-1.274712 -0.637356,-1.764984l-9.977037,10.001551z"/>
   <path stroke="null" id="svg_14" fill="#fff" d="m20.1546,23.243313l2.083654,2.083654c0.049028,0.049028 0.049028,0.098056 0,0.147083c-0.024514,0.024514 -0.024514,0.024514 -0.049028,0.024514l-4.314392,0.931517c-0.220625,0.024514 -0.416731,-0.122569 -0.465759,-0.343189c-0.024514,-0.122569 0.024514,-0.245139 0.098056,-0.31868l2.500385,-2.500385c0.049028,-0.049028 0.122569,-0.073542 0.147083,-0.024514z"/>
   <path stroke="null" id="svg_15" fill="#242646" d="m17.801293,26.675216c-0.367703,0 -0.637356,-0.294161 -0.637356,-0.661865c0,-0.171597 0.073542,-0.343189 0.196111,-0.465759l2.50039,-2.50039c0.147078,-0.122564 0.343189,-0.122564 0.490267,0l2.083659,2.083659c0.147083,0.122569 0.147083,0.343189 0,0.490272c-0.049028,0.049028 -0.098056,0.073542 -0.171597,0.098056l-4.314392,0.931512c-0.049028,0 -0.098056,0.024514 -0.147083,0.024514zm2.279765,-3.162255l-2.402335,2.402335c-0.049028,0.049028 -0.073536,0.122569 -0.024514,0.196111c0.024514,0.073536 0.098056,0.09805 0.171597,0.073536l4.044744,-0.882489l-1.789493,-1.789493z"/>
   <path stroke="null" id="svg_16" fill="#fff" d="m38.833962,10.005966c-1.568868,-1.51984 -4.093772,-1.470817 -5.613612,0.122569s-1.470817,4.093772 0.122569,5.613612c1.29922,1.250198 3.260305,1.470817 4.804664,0.5393l-2.794552,-2.794552l3.48093,-3.48093z"/>
   <path stroke="null" id="svg_17" fill="#242646" d="m36.088443,17.090401c-2.328793,0 -4.216341,-1.887548 -4.216341,-4.216341s1.887548,-4.216341 4.216341,-4.216341c1.078595,0 2.132682,0.416731 2.917116,1.176656c0.049028,0.049023 0.073542,0.09805 0.073542,0.171592s-0.024514,0.122569 -0.073542,0.171597l-3.309333,3.309333l2.598441,2.598446c0.098056,0.098056 0.098056,0.245134 0,0.343189c-0.024514,0.024514 -0.024514,0.024514 -0.049028,0.049028c-0.637356,0.392217 -1.397276,0.612837 -2.157196,0.612837l0,0.000005zm0,-7.917896c-2.059146,0 -3.726069,1.666923 -3.701555,3.726069c0,2.05914 1.666923,3.726069 3.726069,3.701555c0.563809,0 1.127623,-0.122569 1.642409,-0.392217l-2.573927,-2.549418c-0.049028,-0.049028 -0.073542,-0.098056 -0.073542,-0.171592s0.024514,-0.122569 0.073542,-0.171597l3.284819,-3.284824c-0.661865,-0.563814 -1.495326,-0.857976 -2.377816,-0.857976z"/>
   <path stroke="null" id="svg_18" fill="#fff" d="m38.907504,10.079508l-0.049023,-0.049028l-3.505449,3.456416l2.770038,2.770038c0.269653,-0.171592 0.5393,-0.367703 0.75992,-0.588323c1.568873,-1.544359 1.568873,-4.044744 0.024514,-5.589103z"/>
   <path stroke="null" id="svg_19" fill="#242646" d="m38.147584,16.526587c-0.073542,0 -0.122569,-0.024514 -0.171597,-0.073542l-2.794547,-2.794552c-0.049028,-0.049028 -0.073542,-0.098056 -0.073542,-0.171592s0.024514,-0.122569 0.073542,-0.171597l3.48093,-3.48093c0.098056,-0.098056 0.245134,-0.098056 0.343189,0l0.073542,0.049028c1.642409,1.642409 1.642409,4.289878 0.024514,5.956801c-0.245139,0.245139 -0.514786,0.465759 -0.808948,0.637356c-0.073542,0.024514 -0.122569,0.049028 -0.147083,0.049028zm-2.451362,-3.03969l2.475876,2.475876c0.196111,-0.122569 0.392217,-0.294161 0.5393,-0.441245c1.397276,-1.397276 1.470817,-3.677041 0.122569,-5.147859l-3.137746,3.113227z"/>
   <path stroke="null" id="svg_20" fill="#fff" d="m33.784164,16.183398c-0.588328,-0.588328 -1.544359,-0.588328 -2.132687,0l-9.241625,9.241625l1.544354,1.544359l9.780931,-8.579761c0.637351,-0.5393 0.686378,-1.495331 0.147078,-2.132687c-0.049023,-0.024509 -0.073536,-0.049023 -0.09805,-0.073536z"/>
   <path stroke="null" id="svg_21" fill="#242646" d="m23.929692,27.214516c-0.073536,0 -0.122564,-0.024514 -0.171592,-0.073542l-1.544359,-1.544354c-0.098056,-0.098056 -0.098056,-0.245139 0,-0.343189l9.241631,-9.241631c0.686378,-0.686378 1.789493,-0.686378 2.475871,0c0.686384,0.686378 0.686384,1.789493 0,2.475871c-0.024514,0.024514 -0.049028,0.049028 -0.073536,0.073542l-9.780931,8.579761c-0.024514,0.049028 -0.073542,0.073542 -0.147083,0.073542zm-1.176651,-1.789493l1.201165,1.201165l9.609334,-8.432678c0.5393,-0.441245 0.588328,-1.250193 0.147083,-1.789493s-1.250193,-0.588328 -1.789493,-0.147083c-0.024514,0.024514 -0.049028,0.049028 -0.098056,0.073542l-9.070033,9.094547z"/>
   <path stroke="null" id="svg_22" fill="#fff" d="m15.325422,35.94136c-0.098056,0.049028 -0.147083,0.147083 -0.122569,0.245134l0.416731,1.764979c0.098056,0.245139 -0.049028,0.5393 -0.318675,0.612842c-0.196111,0.073542 -0.416736,0 -0.5393,-0.147083l-2.696496,-2.671982l8.800381,-8.800381l3.03969,0.049028l2.05914,2.05914c-0.490272,0.416731 -3.456416,3.284824 -10.638901,6.888324z"/>
   <path stroke="null" id="svg_23" fill="#242646" d="m15.129311,38.809453c-0.196111,0 -0.392217,-0.073542 -0.514786,-0.220625l-2.671982,-2.671982c-0.049028,-0.049028 -0.073542,-0.098056 -0.073542,-0.171597s0.024514,-0.122564 0.073542,-0.171592l8.800386,-8.800386c0.049023,-0.049028 0.122564,-0.073542 0.171592,-0.073542l3.039685,0.049028c0.073542,0 0.122569,0.024514 0.171597,0.073542l2.059146,2.059146c0.049023,0.049023 0.073536,0.122564 0.073536,0.196106s-0.024514,0.122569 -0.098056,0.171597l-0.171592,0.147083c-2.598441,2.279765 -6.128404,4.559525 -10.516337,6.74124l0.416731,1.740465c0.073542,0.318675 -0.073542,0.661865 -0.367703,0.833462c-0.147083,0.073542 -0.269648,0.098056 -0.392217,0.098056zm-2.696496,-3.064204l2.524899,2.50039c0.073542,0.122569 0.220625,0.171597 0.343189,0.098056s0.171597,-0.220625 0.098056,-0.343189l-0.416731,-1.764984c-0.049028,-0.22062 0.049028,-0.416731 0.245139,-0.514781c4.338906,-2.181715 7.84435,-4.436966 10.418281,-6.667704l-1.814007,-1.814007l-2.819066,-0.049028l-8.579761,8.555247z"/>
   <path stroke="null" id="svg_24" fill="#fff" d="m9.981452,37.853422l2.108173,-2.108173l3.137741,3.137741l-5.000775,-0.343189c-0.220625,-0.024514 -0.367703,-0.22062 -0.343189,-0.441245c0,-0.098056 0.024509,-0.196106 0.09805,-0.245134z"/>
   <path stroke="null" id="svg_25" fill="#242646" d="m15.227367,39.103615l-5.025289,-0.343189c-0.367703,-0.024514 -0.612842,-0.343194 -0.588328,-0.710897c0.024514,-0.147078 0.073542,-0.294161 0.196111,-0.392217l2.108168,-2.108168c0.098056,-0.098056 0.245134,-0.098056 0.343189,0l3.137741,3.137741c0.073542,0.073542 0.098056,0.171597 0.049028,0.269648s-0.122564,0.147083 -0.22062,0.147083zm-3.137741,-3.015171l-1.936576,1.936571c-0.073542,0.049028 -0.073542,0.171597 0,0.220625c0.024514,0.024514 0.049028,0.049028 0.098056,0.049028l4.338906,0.294161l-2.500385,-2.500385z"/>
   <path stroke="null" id="svg_26" fill="#242646" d="m20.007517,28.072491c-0.147083,0 -0.245134,-0.122564 -0.245134,-0.245134c0,-0.073542 0.024509,-0.122569 0.073536,-0.171597l2.377821,-2.377821c0.098056,-0.09805 0.245139,-0.09805 0.343189,0l1.544359,1.544359c0.073542,0.073542 0.098056,0.147083 0.073542,0.245139c-0.024514,0.073536 -0.098056,0.147078 -0.196111,0.171592l-3.922175,0.833462c-0.024514,0 -0.049028,0 -0.049028,0zm2.377821,-2.279765l-1.617901,1.617901l2.647474,-0.563814l-1.029573,-1.054087z"/>
   <path stroke="null" id="svg_27" fill="#fff" d="m23.905183,26.993896l-2.696496,0.588323c-0.196111,0.049028 -0.392222,-0.073536 -0.441245,-0.269648c-0.024514,-0.122569 0,-0.245139 0.09805,-0.343189l1.495331,-1.495331l1.544359,1.519845z"/>
   <path stroke="null" id="svg_28" fill="#242646" d="m21.159659,27.827358c-0.343194,0 -0.612842,-0.269653 -0.612842,-0.612842c0,-0.171592 0.073542,-0.318675 0.171597,-0.441245l1.495326,-1.495331c0.098056,-0.09805 0.245139,-0.09805 0.343189,0l1.544359,1.544359c0.073542,0.073542 0.098056,0.147083 0.073542,0.245139c-0.024514,0.073536 -0.098056,0.147078 -0.196111,0.171592l-2.696496,0.588328c-0.049028,0 -0.098056,0 -0.122564,0zm1.225679,-2.034632l-1.323734,1.323734c-0.049028,0.049028 -0.049028,0.098056 -0.024514,0.147083s0.073542,0.073542 0.147083,0.073542l2.255251,-0.490272l-1.054087,-1.054087z"/>
   <path stroke="null" id="svg_29" fill="#242646" d="m38.932018,12.367271c-0.049028,-0.147083 -0.22062,-0.220625 -0.367703,-0.171597s-0.22062,0.220625 -0.171597,0.367703c0,0.024514 0.024514,0.049028 0.024514,0.073542c0.147083,0.294167 0.098056,0.66187 -0.09805,0.931517c-0.098056,0.122569 -0.073542,0.294161 0.024514,0.392217c0.122564,0.098056 0.294161,0.073542 0.392217,-0.049028c0.367703,-0.465759 0.441245,-1.054081 0.196106,-1.544354z"/>
  </g>
 </g>
</svg>